<mxfile host="65bd71144e" modified="2020-11-05T13:58:09.751Z" agent="5.0 (X11; Linux x86_64) AppleWebKit/537.36 (KHTML, like Gecko) Code/1.50.1 Chrome/83.0.4103.122 Electron/9.2.1 Safari/537.36" etag="UElVzIukw3kvOI7T1EXi" version="13.6.5">
    <diagram name="Page-1" id="efa7a0a1-bf9b-a30e-e6df-94a7791c09e9">
        <mxGraphModel dx="1127" dy="771" grid="1" gridSize="10" guides="1" tooltips="1" connect="1" arrows="1" fold="1" page="1" pageScale="1" pageWidth="826" pageHeight="1169" background="#ffffff" math="0" shadow="0">
            <root>
                <mxCell id="0"/>
                <mxCell id="1" parent="0"/>
                <mxCell id="uHPwrHiLFeKyYd7KZDKp-114" value="app_reader" style="html=1;" parent="1" vertex="1">
                    <mxGeometry x="250" y="100" width="110" height="50" as="geometry"/>
                </mxCell>
                <mxCell id="uHPwrHiLFeKyYd7KZDKp-115" value="app_writer" style="html=1;" parent="1" vertex="1">
                    <mxGeometry x="490" y="100" width="110" height="50" as="geometry"/>
                </mxCell>
                <mxCell id="uHPwrHiLFeKyYd7KZDKp-116" value="data_link" style="html=1;" parent="1" vertex="1">
                    <mxGeometry x="200" y="220" width="110" height="50" as="geometry"/>
                </mxCell>
                <mxCell id="uHPwrHiLFeKyYd7KZDKp-119" value="utils" style="html=1;" parent="1" vertex="1">
                    <mxGeometry x="358" y="310" width="110" height="50" as="geometry"/>
                </mxCell>
                <mxCell id="uHPwrHiLFeKyYd7KZDKp-120" value="" style="endArrow=classic;startArrow=none;endFill=1;startFill=0;html=1;exitX=0.5;exitY=1;exitDx=0;exitDy=0;entryX=0.5;entryY=0;entryDx=0;entryDy=0;edgeStyle=orthogonalEdgeStyle;" parent="1" source="uHPwrHiLFeKyYd7KZDKp-116" target="uHPwrHiLFeKyYd7KZDKp-119" edge="1">
                    <mxGeometry width="160" relative="1" as="geometry">
                        <mxPoint x="350" y="290" as="sourcePoint"/>
                        <mxPoint x="510" y="290" as="targetPoint"/>
                    </mxGeometry>
                </mxCell>
                <mxCell id="uHPwrHiLFeKyYd7KZDKp-121" value="app_structs" style="html=1;" parent="1" vertex="1">
                    <mxGeometry x="118" y="400" width="110" height="50" as="geometry"/>
                </mxCell>
                <mxCell id="uHPwrHiLFeKyYd7KZDKp-122" value="macros" style="html=1;" parent="1" vertex="1">
                    <mxGeometry x="460" y="400" width="110" height="50" as="geometry"/>
                </mxCell>
                <mxCell id="uHPwrHiLFeKyYd7KZDKp-123" value="noncanonical" style="html=1;" parent="1" vertex="1">
                    <mxGeometry x="270" y="400" width="110" height="50" as="geometry"/>
                </mxCell>
                <mxCell id="uHPwrHiLFeKyYd7KZDKp-124" value="writenoncanonical" style="html=1;" parent="1" vertex="1">
                    <mxGeometry x="598" y="400" width="110" height="50" as="geometry"/>
                </mxCell>
                <mxCell id="uHPwrHiLFeKyYd7KZDKp-125" value="" style="endArrow=none;startArrow=block;endFill=0;startFill=1;html=1;exitX=0.5;exitY=0;exitDx=0;exitDy=0;entryX=0.5;entryY=1;entryDx=0;entryDy=0;edgeStyle=orthogonalEdgeStyle;" parent="1" source="uHPwrHiLFeKyYd7KZDKp-121" target="uHPwrHiLFeKyYd7KZDKp-119" edge="1">
                    <mxGeometry width="160" relative="1" as="geometry">
                        <mxPoint x="320" y="310" as="sourcePoint"/>
                        <mxPoint x="480" y="310" as="targetPoint"/>
                    </mxGeometry>
                </mxCell>
                <mxCell id="uHPwrHiLFeKyYd7KZDKp-126" value="" style="endArrow=none;startArrow=block;endFill=0;startFill=1;html=1;exitX=0.5;exitY=0;exitDx=0;exitDy=0;entryX=0.5;entryY=1;entryDx=0;entryDy=0;edgeStyle=orthogonalEdgeStyle;" parent="1" source="uHPwrHiLFeKyYd7KZDKp-122" target="uHPwrHiLFeKyYd7KZDKp-119" edge="1">
                    <mxGeometry width="160" relative="1" as="geometry">
                        <mxPoint x="183" y="410" as="sourcePoint"/>
                        <mxPoint x="423" y="370" as="targetPoint"/>
                    </mxGeometry>
                </mxCell>
                <mxCell id="uHPwrHiLFeKyYd7KZDKp-127" value="" style="endArrow=none;startArrow=block;endFill=0;startFill=1;html=1;exitX=0.5;exitY=0;exitDx=0;exitDy=0;entryX=0.5;entryY=1;entryDx=0;entryDy=0;edgeStyle=orthogonalEdgeStyle;" parent="1" source="uHPwrHiLFeKyYd7KZDKp-123" target="uHPwrHiLFeKyYd7KZDKp-119" edge="1">
                    <mxGeometry width="160" relative="1" as="geometry">
                        <mxPoint x="193" y="420" as="sourcePoint"/>
                        <mxPoint x="433" y="380" as="targetPoint"/>
                    </mxGeometry>
                </mxCell>
                <mxCell id="uHPwrHiLFeKyYd7KZDKp-128" value="" style="endArrow=none;startArrow=block;endFill=0;startFill=1;html=1;exitX=0.5;exitY=0;exitDx=0;exitDy=0;entryX=0.5;entryY=1;entryDx=0;entryDy=0;edgeStyle=orthogonalEdgeStyle;" parent="1" source="uHPwrHiLFeKyYd7KZDKp-124" target="uHPwrHiLFeKyYd7KZDKp-119" edge="1">
                    <mxGeometry width="160" relative="1" as="geometry">
                        <mxPoint x="203" y="430" as="sourcePoint"/>
                        <mxPoint x="443" y="390" as="targetPoint"/>
                    </mxGeometry>
                </mxCell>
                <mxCell id="KK-FkL_AWgnjdfZn5m0_-1" value="files" style="html=1;" parent="1" vertex="1">
                    <mxGeometry x="520" y="220" width="110" height="50" as="geometry"/>
                </mxCell>
                <mxCell id="KK-FkL_AWgnjdfZn5m0_-2" value="" style="endArrow=block;startArrow=none;endFill=1;startFill=0;html=1;exitX=0.5;exitY=1;exitDx=0;exitDy=0;entryX=0.5;entryY=0;entryDx=0;entryDy=0;edgeStyle=orthogonalEdgeStyle;" parent="1" source="uHPwrHiLFeKyYd7KZDKp-115" target="KK-FkL_AWgnjdfZn5m0_-1" edge="1">
                    <mxGeometry width="160" relative="1" as="geometry">
                        <mxPoint x="550" y="160" as="sourcePoint"/>
                        <mxPoint x="710" y="160" as="targetPoint"/>
                    </mxGeometry>
                </mxCell>
                <mxCell id="KK-FkL_AWgnjdfZn5m0_-4" value="" style="endArrow=block;startArrow=none;endFill=1;startFill=0;html=1;exitX=0.5;exitY=1;exitDx=0;exitDy=0;entryX=0.5;entryY=0;entryDx=0;entryDy=0;edgeStyle=orthogonalEdgeStyle;" parent="1" source="uHPwrHiLFeKyYd7KZDKp-115" target="uHPwrHiLFeKyYd7KZDKp-116" edge="1">
                    <mxGeometry width="160" relative="1" as="geometry">
                        <mxPoint x="555" y="160" as="sourcePoint"/>
                        <mxPoint x="585" y="230" as="targetPoint"/>
                    </mxGeometry>
                </mxCell>
                <mxCell id="KK-FkL_AWgnjdfZn5m0_-5" value="" style="endArrow=block;startArrow=none;endFill=1;startFill=0;html=1;exitX=0.5;exitY=1;exitDx=0;exitDy=0;entryX=0.5;entryY=0;entryDx=0;entryDy=0;edgeStyle=orthogonalEdgeStyle;" parent="1" source="uHPwrHiLFeKyYd7KZDKp-114" target="uHPwrHiLFeKyYd7KZDKp-116" edge="1">
                    <mxGeometry width="160" relative="1" as="geometry">
                        <mxPoint x="555" y="160" as="sourcePoint"/>
                        <mxPoint x="265" y="230" as="targetPoint"/>
                    </mxGeometry>
                </mxCell>
                <mxCell id="KK-FkL_AWgnjdfZn5m0_-6" value="" style="endArrow=block;startArrow=none;endFill=1;startFill=0;html=1;exitX=0.5;exitY=1;exitDx=0;exitDy=0;entryX=0.5;entryY=0;entryDx=0;entryDy=0;edgeStyle=orthogonalEdgeStyle;" parent="1" source="uHPwrHiLFeKyYd7KZDKp-114" target="KK-FkL_AWgnjdfZn5m0_-1" edge="1">
                    <mxGeometry width="160" relative="1" as="geometry">
                        <mxPoint x="315" y="160" as="sourcePoint"/>
                        <mxPoint x="265" y="230" as="targetPoint"/>
                    </mxGeometry>
                </mxCell>
                <mxCell id="2" value="" style="endArrow=none;html=1;entryX=0.5;entryY=1;entryDx=0;entryDy=0;exitX=0.5;exitY=0;exitDx=0;exitDy=0;edgeStyle=orthogonalEdgeStyle;startArrow=classic;startFill=1;endFill=0;" edge="1" parent="1" source="uHPwrHiLFeKyYd7KZDKp-122" target="KK-FkL_AWgnjdfZn5m0_-1">
                    <mxGeometry width="50" height="50" relative="1" as="geometry">
                        <mxPoint x="390" y="420" as="sourcePoint"/>
                        <mxPoint x="440" y="370" as="targetPoint"/>
                    </mxGeometry>
                </mxCell>
            </root>
        </mxGraphModel>
    </diagram>
</mxfile>